<svg width="16" height="16" viewBox="0 0 16 16" fill="none" xmlns="http://www.w3.org/2000/svg">
<g clip-path="url(#clip0_1641_5151)">
<path d="M8.05664 -0.015625C8.2238 0.031499 8.31691 0.242674 8.39709 0.385574C8.40995 0.409115 8.4228 0.432655 8.43604 0.456909C8.44957 0.481537 8.46311 0.506165 8.47705 0.53154C8.73371 1.00549 8.95185 1.50737 8.82495 2.05591C8.73735 2.25631 8.54037 2.38791 8.34424 2.47253C8.3133 2.47253 8.28236 2.47253 8.25049 2.47253C8.25049 2.74066 8.25049 3.00878 8.25049 3.28503C8.46973 3.28011 8.46973 3.28011 8.68893 3.27377C8.71645 3.27346 8.74398 3.27315 8.77234 3.27283C8.80032 3.27217 8.82831 3.27152 8.85714 3.27084C8.97005 3.29066 9.01528 3.32672 9.09424 3.41003C9.10916 3.50487 9.11408 3.58198 9.11198 3.67667C9.112 3.70351 9.11202 3.73035 9.11205 3.758C9.11194 3.84662 9.11072 3.93519 9.1095 4.0238C9.10921 4.08528 9.10898 4.14676 9.10883 4.20823C9.10823 4.36997 9.1067 4.53169 9.10497 4.69341C9.10309 4.8875 9.10237 5.08159 9.10146 5.27568C9.09994 5.57048 9.09695 5.86523 9.09424 6.16003C9.66143 6.16003 10.2286 6.16003 10.813 6.16003C10.8119 5.95656 10.8108 5.75309 10.8097 5.54346C10.8092 5.41457 10.8088 5.28569 10.8084 5.1568C10.8078 4.95221 10.8072 4.74763 10.8059 4.54305C10.8049 4.37812 10.8043 4.21319 10.8041 4.04825C10.8039 3.98532 10.8036 3.92239 10.8031 3.85946C10.8024 3.77132 10.8023 3.68321 10.8023 3.59507C10.8018 3.55603 10.8018 3.55603 10.8013 3.51619C10.8021 3.37182 10.8129 3.27732 10.9067 3.16003C10.997 3.1149 11.0566 3.11701 11.1567 3.12878C11.2408 3.19062 11.3026 3.24036 11.327 3.34533C11.3322 3.41956 11.3323 3.49229 11.3307 3.56669C11.3307 3.59475 11.3308 3.62282 11.3308 3.65173C11.3307 3.74424 11.3295 3.8367 11.3282 3.9292C11.328 3.99343 11.3277 4.05767 11.3276 4.1219C11.327 4.29078 11.3254 4.45964 11.3237 4.6285C11.3221 4.8009 11.3214 4.97329 11.3206 5.14569C11.3189 5.48381 11.3163 5.82192 11.313 6.16003C11.3343 6.16193 11.3557 6.16384 11.3777 6.16579C11.4058 6.16842 11.4338 6.17104 11.4628 6.17374C11.4906 6.17629 11.5184 6.17883 11.547 6.18146C11.812 6.21464 12.0532 6.36127 12.2505 6.53503C12.2694 6.55139 12.2883 6.56774 12.3077 6.58459C12.575 6.83261 12.7671 7.19428 12.7846 7.56337C12.7856 7.63646 12.7856 7.70948 12.7853 7.78257C12.7853 7.81033 12.7853 7.83809 12.7853 7.86669C12.7853 7.95817 12.785 8.04964 12.7848 8.14111C12.7847 8.20465 12.7847 8.26818 12.7847 8.33172C12.7845 8.49873 12.7842 8.66575 12.7839 8.83277C12.7836 9.00328 12.7834 9.17379 12.7833 9.3443C12.7829 9.67871 12.7824 10.0131 12.7817 10.3475C12.8009 10.3473 12.8201 10.3471 12.8398 10.3468C12.8776 10.3465 12.8776 10.3465 12.9162 10.3462C12.9412 10.346 12.9661 10.3458 12.9918 10.3455C13.3178 10.3548 13.6481 10.5576 13.8813 10.7733C14.1779 11.0879 14.3292 11.4681 14.3236 11.8969C14.3236 11.925 14.3237 11.9531 14.3237 11.982C14.3236 12.0737 14.3229 12.1653 14.3221 12.257C14.322 12.321 14.3218 12.385 14.3217 12.449C14.3214 12.6166 14.3205 12.7842 14.3194 12.9517C14.3185 13.1231 14.318 13.2945 14.3176 13.4658C14.3166 13.8014 14.315 14.137 14.313 14.4725C14.3327 14.4723 14.3525 14.4721 14.3729 14.4719C14.5782 14.4698 14.7835 14.4684 14.9888 14.4674C15.0654 14.4669 15.1421 14.4663 15.2187 14.4655C15.3288 14.4643 15.4389 14.4638 15.549 14.4634C15.5833 14.4629 15.6177 14.4624 15.6531 14.4619C15.701 14.4619 15.701 14.4619 15.7498 14.4619C15.7779 14.4617 15.806 14.4615 15.835 14.4613C15.9218 14.4749 15.9492 14.4959 16.0005 14.5663C16.0509 14.9115 15.9783 15.2191 15.772 15.4979C15.5693 15.7388 15.3178 15.9426 15.0005 16.0038C14.9225 16.0068 14.8454 16.0081 14.7674 16.008C14.7437 16.0081 14.7201 16.0081 14.6957 16.0082C14.6159 16.0084 14.5361 16.0084 14.4563 16.0084C14.3987 16.0085 14.3411 16.0086 14.2834 16.0087C14.1248 16.009 13.9661 16.0092 13.8074 16.0092C13.6364 16.0094 13.4654 16.0097 13.2944 16.0099C12.8813 16.0106 12.4681 16.0109 12.055 16.0111C11.8605 16.0113 11.666 16.0115 11.4715 16.0116C10.8249 16.0121 10.1784 16.0126 9.53191 16.0128C9.4901 16.0128 9.44829 16.0129 9.40648 16.0129C9.38574 16.0129 9.36501 16.0129 9.34365 16.0129C9.2386 16.0129 9.13355 16.013 9.0285 16.013C9.00765 16.013 8.9868 16.013 8.96532 16.013C8.28953 16.0133 7.61375 16.014 6.93796 16.015C6.22338 16.0161 5.50879 16.0167 4.79421 16.0168C4.40472 16.0169 4.01524 16.0172 3.62576 16.018C3.29407 16.0186 2.96238 16.0189 2.63069 16.0186C2.46147 16.0184 2.29226 16.0185 2.12304 16.0191C1.96803 16.0197 1.81303 16.0196 1.65802 16.0191C1.60204 16.0191 1.54606 16.0192 1.49007 16.0196C1.01252 16.0225 0.673905 15.9483 0.321899 15.6083C0.102659 15.3717 -0.00330179 15.1019 -0.00732422 14.7831C-0.00812988 14.7447 -0.00893555 14.7063 -0.00976562 14.6667C0.000488281 14.5663 0.000487804 14.5663 0.0381947 14.5138C0.112816 14.4589 0.158985 14.4612 0.251183 14.4619C0.283084 14.4619 0.314985 14.4619 0.347852 14.4619C0.399418 14.4626 0.399418 14.4626 0.452026 14.4634C0.50489 14.4636 0.50489 14.4636 0.558821 14.4638C0.671546 14.4643 0.784253 14.4655 0.896973 14.4667C0.973327 14.4671 1.04968 14.4676 1.12604 14.468C1.31336 14.469 1.50067 14.4706 1.68799 14.4725C1.68771 14.4373 1.68743 14.4022 1.68715 14.3659C1.6846 14.0331 1.68274 13.7002 1.68151 13.3674C1.68086 13.1963 1.67998 13.0252 1.67856 12.8542C1.67719 12.6888 1.67645 12.5235 1.67613 12.3581C1.6759 12.2953 1.67545 12.2325 1.67477 12.1696C1.66907 11.6198 1.7464 11.1832 2.13135 10.7616C2.3883 10.5219 2.72911 10.3446 3.08378 10.3467C3.12182 10.3469 3.12182 10.3469 3.16062 10.3471C3.17996 10.3472 3.19931 10.3474 3.21924 10.3475C3.21893 10.2953 3.21893 10.2953 3.21861 10.2421C3.2167 9.91294 3.2153 9.58379 3.21438 9.25463C3.21389 9.08543 3.21323 8.91625 3.21217 8.74706C3.21114 8.58354 3.21059 8.42003 3.21034 8.25651C3.21017 8.19436 3.20984 8.13222 3.20933 8.07008C3.20473 7.48578 3.26413 7.04654 3.67822 6.60657C3.91751 6.36971 4.19776 6.20491 4.53822 6.17374C4.56629 6.17112 4.59436 6.1685 4.62328 6.16579C4.65531 6.16294 4.65531 6.16294 4.68799 6.16003C4.6879 6.1368 4.68782 6.11356 4.68773 6.08962C4.68566 5.52445 4.68411 4.95928 4.68313 4.39411C4.68265 4.12079 4.68199 3.84748 4.68092 3.57417C4.67998 3.33598 4.67938 3.09779 4.67917 2.8596C4.67905 2.73345 4.67876 2.60731 4.67808 2.48117C4.67744 2.36246 4.67724 2.24376 4.67738 2.12505C4.67736 2.08147 4.67717 2.03788 4.67681 1.99429C4.67635 1.93481 4.67651 1.87532 4.67671 1.81584C4.67663 1.78254 4.67654 1.74924 4.67645 1.71493C4.68963 1.61649 4.71265 1.57418 4.78174 1.50378C4.90042 1.46422 4.95505 1.46718 5.07275 1.5116C5.15674 1.56628 5.15674 1.56628 5.18799 1.66003C5.19084 1.72068 5.1918 1.78143 5.19175 1.84215C5.19181 1.89913 5.19181 1.89913 5.19188 1.95727C5.19177 1.99944 5.19165 2.0416 5.19154 2.08376C5.19153 2.12811 5.19153 2.17246 5.19155 2.21681C5.19156 2.33728 5.19137 2.45775 5.19116 2.57822C5.19096 2.70409 5.19094 2.82996 5.19091 2.95584C5.19081 3.19423 5.19055 3.43262 5.19024 3.67101C5.18989 3.94239 5.18972 4.21378 5.18956 4.48516C5.18923 5.04345 5.18866 5.60174 5.18799 6.16003C5.75518 6.16003 6.32236 6.16003 6.90674 6.16003C6.90402 5.86444 6.90402 5.86444 6.90125 5.56287C6.90045 5.43811 6.89969 5.31336 6.89911 5.1886C6.89817 4.99052 6.89707 4.79246 6.89495 4.59439C6.89325 4.43472 6.89232 4.27507 6.89191 4.11539C6.89162 4.05444 6.89106 3.99349 6.89022 3.93254C6.88909 3.84723 6.88893 3.76198 6.889 3.67667C6.88816 3.63877 6.88816 3.63877 6.8873 3.60011C6.88843 3.47717 6.89488 3.42255 6.98092 3.33176C7.07288 3.2794 7.12366 3.27037 7.22864 3.27283C7.25616 3.27314 7.28369 3.27345 7.31205 3.27377C7.34652 3.27491 7.38099 3.27605 7.4165 3.27722C7.52672 3.2798 7.63693 3.28238 7.75049 3.28503C7.75049 3.01691 7.75049 2.74878 7.75049 2.47253C7.69893 2.46222 7.64736 2.45191 7.59424 2.44128C7.42058 2.35138 7.27026 2.24729 7.18799 2.06628C7.02348 1.43841 7.3209 0.876646 7.62341 0.341324C7.82229 0.0053947 7.82229 0.0053947 8.05664 -0.015625ZM8.00049 0.753784C7.78766 1.02656 7.61182 1.35578 7.61438 1.70642C7.63256 1.8351 7.68655 1.8862 7.78174 1.97253C7.89484 2.01024 7.97525 2.01387 8.09424 2.00378C8.22978 1.93341 8.31717 1.86508 8.37549 1.72253C8.42453 1.37312 8.1992 1.04612 8.03174 0.753784C8.02143 0.753784 8.01111 0.753784 8.00049 0.753784ZM7.40674 3.78503C7.40674 3.93972 7.40674 4.09441 7.40674 4.25378C7.79861 4.25378 8.19049 4.25378 8.59424 4.25378C8.59424 4.0991 8.59424 3.94441 8.59424 3.78503C8.20236 3.78503 7.81049 3.78503 7.40674 3.78503ZM7.40674 4.75378C7.40674 4.89816 7.40674 5.04253 7.40674 5.19128C7.79861 5.19128 8.19049 5.19128 8.59424 5.19128C8.59424 5.04691 8.59424 4.90253 8.59424 4.75378C8.20236 4.75378 7.81049 4.75378 7.40674 4.75378ZM7.40674 5.69128C7.40674 5.84597 7.40674 6.00066 7.40674 6.16003C7.79861 6.16003 8.19049 6.16003 8.59424 6.16003C8.59424 6.00535 8.59424 5.85066 8.59424 5.69128C8.20236 5.69128 7.81049 5.69128 7.40674 5.69128ZM3.89282 7.11963C3.79322 7.25945 3.75049 7.39607 3.75049 7.56628C3.81232 7.6141 3.81232 7.6141 3.89307 7.65222C4.15423 7.80093 4.28373 8.004 4.43604 8.25574C4.57279 8.48066 4.69645 8.67745 4.95947 8.75769C5.10282 8.75228 5.17345 8.70124 5.27783 8.6073C5.37575 8.54682 5.45048 8.55401 5.56299 8.56628C5.64798 8.61728 5.65556 8.65579 5.68213 8.75183C5.68851 8.85606 5.6802 8.88645 5.62549 8.97253C5.41654 9.15042 5.19149 9.23916 4.91663 9.22986C4.62782 9.20064 4.44132 9.06174 4.25049 8.84753C4.15027 8.71407 4.06154 8.57306 3.97237 8.4321C3.90412 8.32626 3.82887 8.22726 3.75049 8.12878C3.74018 8.12878 3.72986 8.12878 3.71924 8.12878C3.71924 8.86097 3.71924 9.59316 3.71924 10.3475C6.54486 10.3475 9.37049 10.3475 12.2817 10.3475C12.2817 9.61535 12.2817 8.88316 12.2817 8.12878C12.144 8.26562 12.144 8.26562 12.0359 8.41565C12.0205 8.43954 12.005 8.46343 11.9891 8.48804C11.9578 8.53731 11.9266 8.58663 11.8954 8.63599C11.7225 8.90324 11.5335 9.11745 11.2197 9.20947C10.9741 9.2604 10.7547 9.20699 10.5317 9.09753C10.4002 9.00731 10.3128 8.89741 10.2231 8.76746C10.2096 8.74827 10.1961 8.72908 10.1822 8.7093C10.0808 8.56429 9.98641 8.41563 9.89636 8.26331C9.82335 8.16242 9.73686 8.09072 9.62549 8.03503C9.50641 8.01861 9.42393 8.01067 9.31555 8.06519C9.13587 8.20485 9.02627 8.39891 8.90678 8.58877C8.72819 8.87247 8.54647 9.12734 8.20239 9.21045C7.92966 9.25331 7.69655 9.2059 7.46729 9.05066C7.28149 8.90129 7.1582 8.69709 7.03064 8.49854C6.85234 8.19573 6.85234 8.19573 6.56396 8.01965C6.44321 8.01176 6.36565 8.03478 6.26416 8.09949C6.13542 8.17205 6.07832 8.16731 5.93799 8.12878C5.86143 8.05223 5.85155 8.01735 5.84424 7.91003C5.88245 7.76895 5.94852 7.70472 6.0708 7.63269C6.30419 7.5276 6.56661 7.52021 6.81104 7.59399C7.09291 7.72333 7.26641 7.94767 7.42432 8.20691C7.60199 8.5082 7.60199 8.5082 7.85791 8.73816C7.96943 8.75992 8.0466 8.75152 8.15674 8.72253C8.34114 8.59624 8.44303 8.42901 8.56104 8.24207C8.93469 7.65117 8.93469 7.65117 9.28174 7.56628C9.5718 7.53253 9.82447 7.54311 10.063 7.72253C10.2372 7.87437 10.351 8.06205 10.4692 8.25769C10.6054 8.48242 10.7287 8.67444 10.9888 8.75964C11.1607 8.75009 11.2569 8.66091 11.3696 8.53894C11.4592 8.43032 11.533 8.3122 11.6079 8.19324C11.7853 7.91287 11.9439 7.71091 12.2505 7.56628C12.2273 7.28768 12.1179 7.09722 11.9159 6.90466C11.6866 6.72186 11.456 6.65537 11.1678 6.65544C11.1399 6.65532 11.1119 6.65521 11.0832 6.65509C10.9892 6.65474 10.8952 6.65462 10.8012 6.6545C10.734 6.65431 10.6667 6.6541 10.5995 6.65388C10.4165 6.65334 10.2335 6.65301 10.0505 6.65275C9.93618 6.65259 9.82184 6.6524 9.70751 6.6522C9.34977 6.65161 8.99204 6.65116 8.6343 6.6509C8.2214 6.6506 7.8085 6.64977 7.3956 6.64851C7.07646 6.64757 6.75732 6.64711 6.43818 6.647C6.24758 6.64693 6.05698 6.64665 5.86639 6.64586C5.68696 6.64513 5.50755 6.645 5.32813 6.64532C5.2624 6.64534 5.19666 6.64514 5.13093 6.64471C4.59987 6.64144 4.25419 6.69282 3.89282 7.11963ZM2.42346 11.1903C2.31099 11.3391 2.22744 11.5087 2.18799 11.6913C2.21325 11.7034 2.2385 11.7155 2.26453 11.7279C2.29792 11.7442 2.33132 11.7605 2.36572 11.7772C2.39871 11.7932 2.43171 11.8091 2.4657 11.8256C2.79472 12.0056 2.97737 12.3399 3.17236 12.6483C3.43034 13.0766 3.43034 13.0766 3.84424 13.3163C4.04364 13.3227 4.19031 13.2934 4.34424 13.16C4.52408 12.9754 4.66056 12.7681 4.79736 12.5507C5.02738 12.185 5.24959 11.8396 5.68604 11.7108C6.00465 11.6494 6.28965 11.691 6.56995 11.8575C6.82471 12.0372 6.99579 12.2832 7.15479 12.5468C7.42084 13.0181 7.42084 13.0181 7.85181 13.3046C8.03681 13.3368 8.17081 13.3078 8.33301 13.2144C8.56132 13.0461 8.69373 12.7896 8.84033 12.5526C9.07534 12.1736 9.30493 11.8784 9.73096 11.7128C10.0576 11.6508 10.3565 11.6913 10.6431 11.8632C10.9174 12.0605 11.088 12.3497 11.2608 12.6331C11.5205 13.0663 11.5205 13.0663 11.938 13.3163C12.1731 13.3198 12.3176 13.2719 12.4917 13.1101C12.6458 12.9513 12.7594 12.771 12.8755 12.5839C13.1269 12.1794 13.35 11.8648 13.813 11.6913C13.7312 11.3903 13.592 11.1605 13.33 10.983C13.0306 10.8218 12.7173 10.8071 12.3832 10.8083C12.3246 10.8082 12.3246 10.8082 12.2648 10.8081C12.157 10.8078 12.0493 10.8079 11.9416 10.8081C11.8251 10.8083 11.7086 10.808 11.5922 10.8079C11.3643 10.8076 11.1364 10.8076 10.9086 10.8078C10.7233 10.808 10.538 10.808 10.3528 10.8079C10.3264 10.8079 10.3 10.8079 10.2727 10.8079C10.2191 10.8079 10.1654 10.8079 10.1118 10.8078C9.60917 10.8077 9.10654 10.8079 8.60391 10.8082C8.173 10.8085 7.7421 10.8084 7.31119 10.8081C6.81031 10.8078 6.30944 10.8077 5.80856 10.8079C5.75511 10.8079 5.70166 10.8079 5.64821 10.8079C5.62191 10.8079 5.59562 10.8079 5.56853 10.808C5.38357 10.808 5.19862 10.8079 5.01366 10.8078C4.78815 10.8076 4.56263 10.8076 4.33711 10.808C4.22214 10.8081 4.10716 10.8082 3.99219 10.808C3.86737 10.8078 3.74256 10.808 3.61774 10.8083C3.58166 10.8082 3.54558 10.8081 3.5084 10.8079C3.09939 10.8099 2.71337 10.8778 2.42346 11.1903ZM5.50049 12.3788C5.44817 12.4444 5.39959 12.5091 5.35205 12.578C5.3386 12.5971 5.32515 12.6162 5.31129 12.6358C5.23082 12.751 5.15444 12.8682 5.08007 12.9874C4.84999 13.3552 4.61163 13.6662 4.16895 13.7736C3.87212 13.8192 3.57377 13.7727 3.32117 13.6023C3.04155 13.3627 2.84548 13.0598 2.65674 12.7479C2.53502 12.5468 2.40271 12.373 2.21924 12.2225C2.20893 12.2225 2.19861 12.2225 2.18799 12.2225C2.18799 12.965 2.18799 13.7075 2.18799 14.4725C2.4726 14.473 2.75722 14.4734 3.05046 14.4739C3.96021 14.4754 4.86995 14.4774 5.7797 14.4797C5.92091 14.48 6.06213 14.4804 6.20334 14.4807C6.24551 14.4808 6.24551 14.4808 6.28853 14.4809C6.74428 14.4821 7.20003 14.4828 7.65577 14.4835C8.12311 14.4842 8.59044 14.4852 9.05777 14.4866C9.34634 14.4874 9.63491 14.4879 9.92348 14.4881C10.1211 14.4883 10.3188 14.4888 10.5164 14.4896C10.6306 14.49 10.7448 14.4903 10.859 14.4902C10.9825 14.4901 11.1061 14.4907 11.2296 14.4913C11.266 14.4912 11.3025 14.491 11.34 14.4909C11.3729 14.4912 11.4058 14.4915 11.4396 14.4918C11.4682 14.4918 11.4967 14.4919 11.5262 14.4919C11.5486 14.4958 11.5711 14.4998 11.5942 14.5038C11.6711 14.619 11.6665 14.6801 11.6567 14.8163C11.5942 14.91 11.5942 14.91 11.5395 14.9312C11.4532 14.9436 11.3702 14.9454 11.283 14.9456C11.2447 14.9458 11.2063 14.946 11.1668 14.9461C11.1242 14.9462 11.0816 14.9462 11.039 14.9462C10.9938 14.9464 10.9485 14.9465 10.9033 14.9467C10.7789 14.9471 10.6545 14.9474 10.53 14.9476C10.3959 14.9478 10.2618 14.9482 10.1277 14.9486C9.89528 14.9493 9.66286 14.9499 9.43044 14.9504C9.0944 14.9511 8.75837 14.952 8.42233 14.9529C7.87715 14.9544 7.33198 14.9557 6.7868 14.957C6.25716 14.9582 5.72752 14.9595 5.19788 14.9609C5.16524 14.961 5.1326 14.9611 5.09897 14.9612C4.93525 14.9616 4.77152 14.962 4.60779 14.9624C3.2491 14.966 1.89042 14.9693 0.531738 14.9725C0.551374 15.013 0.571141 15.0533 0.590965 15.0937C0.607456 15.1274 0.607456 15.1274 0.62428 15.1618C0.721223 15.3432 0.905964 15.4387 1.09424 15.5038C1.2355 15.5329 1.36982 15.539 1.51388 15.5391C1.54811 15.5391 1.54811 15.5391 1.58303 15.5392C1.65953 15.5394 1.73603 15.5393 1.81253 15.5392C1.86792 15.5393 1.92331 15.5393 1.9787 15.5394C2.13094 15.5396 2.28318 15.5396 2.43542 15.5396C2.5996 15.5396 2.76378 15.5397 2.92796 15.5399C3.24962 15.5402 3.57129 15.5402 3.89296 15.5403C4.1544 15.5403 4.41583 15.5403 4.67727 15.5404C5.41834 15.5407 6.1594 15.5409 6.90047 15.5408C6.94043 15.5408 6.98038 15.5408 7.02155 15.5408C7.08156 15.5408 7.08156 15.5408 7.14279 15.5408C7.79126 15.5408 8.43973 15.5411 9.0882 15.5415C9.75389 15.542 10.4196 15.5422 11.0853 15.5422C11.4591 15.5422 11.8329 15.5423 12.2067 15.5426C12.5249 15.5429 12.8431 15.543 13.1614 15.5427C13.3238 15.5426 13.4861 15.5426 13.6485 15.5429C13.7972 15.5431 13.9459 15.5431 14.0945 15.5428C14.1483 15.5428 14.202 15.5428 14.2558 15.543C14.8219 15.5484 14.8219 15.5484 15.2986 15.2699C15.3801 15.1774 15.4264 15.0868 15.4692 14.9725C15.434 14.9723 15.3987 14.972 15.3623 14.9718C15.0299 14.9693 14.6974 14.9666 14.365 14.9635C14.1941 14.962 14.0232 14.9605 13.8523 14.9594C13.6873 14.9582 13.5224 14.9567 13.3575 14.9551C13.2945 14.9545 13.2316 14.954 13.1687 14.9537C13.0805 14.9532 12.9924 14.9522 12.9043 14.9512C12.8782 14.9512 12.8522 14.9511 12.8254 14.951C12.6942 14.9491 12.587 14.9437 12.4692 14.8788C12.4221 14.7845 12.4325 14.7015 12.438 14.5975C12.5005 14.5038 12.5005 14.5038 12.5578 14.4913C12.581 14.491 12.6042 14.4906 12.6281 14.4903C12.668 14.4893 12.668 14.4893 12.7088 14.4884C12.7368 14.4882 12.7648 14.488 12.7937 14.4878C12.8194 14.4873 12.8452 14.4868 12.8717 14.4862C12.968 14.4844 13.0643 14.4834 13.1606 14.4823C13.4836 14.4775 13.4836 14.4775 13.813 14.4725C13.813 13.7403 13.813 13.0082 13.813 12.2538C13.5403 12.3902 13.3957 12.658 13.2368 12.9081C12.9882 13.2987 12.746 13.6567 12.2743 13.7693C11.9765 13.8236 11.7079 13.769 11.4497 13.6093C11.1661 13.4037 10.9917 13.1226 10.8077 12.8302C10.5561 12.4127 10.5561 12.4127 10.1567 12.16C9.95595 12.143 9.8228 12.1691 9.65674 12.285C9.46542 12.4701 9.325 12.6836 9.18799 12.91C8.96227 13.2831 8.72113 13.6371 8.28174 13.7655C7.92782 13.8344 7.62127 13.7627 7.32239 13.5659C7.10801 13.3807 6.96308 13.154 6.81689 12.9139C6.54316 12.4369 6.54316 12.4369 6.09424 12.16C5.84596 12.1271 5.68313 12.2193 5.50049 12.3788Z" fill="#163C7A"/>
<path d="M12.0001 4.09612C12.1676 4.17986 12.3044 4.31441 12.4063 4.47112C12.4264 4.59146 12.4225 4.65372 12.3731 4.76409C12.2811 4.84131 12.2128 4.84612 12.0938 4.84612C11.9296 4.76399 11.7404 4.60799 11.6563 4.43987C11.6452 4.31999 11.6392 4.2478 11.7052 4.14495C11.8117 4.07665 11.8755 4.07893 12.0001 4.09612Z" fill="#163C7A"/>
<path d="M10.375 4.12268C10.4723 4.18929 10.4957 4.23104 10.5254 4.34534C10.4807 4.55827 10.3132 4.71376 10.1372 4.83521C10.0353 4.88631 9.98245 4.87572 9.875 4.84143C9.77766 4.77483 9.75433 4.73308 9.72461 4.61878C9.76926 4.40584 9.93681 4.25035 10.1128 4.12891C10.2147 4.0778 10.2676 4.08839 10.375 4.12268Z" fill="#163C7A"/>
<path d="M4.25041 2.46496C4.32658 2.53137 4.32658 2.53137 4.37541 2.62121C4.3717 2.77844 4.34011 2.86735 4.22838 2.97986C4.21309 2.99428 4.1978 3.0087 4.18205 3.02356C4.16737 3.0387 4.15268 3.05385 4.13756 3.06946C4.03478 3.16985 3.95658 3.20997 3.81291 3.21496C3.67025 3.14839 3.67025 3.14839 3.62541 3.05871C3.60736 2.94587 3.60436 2.87101 3.66984 2.77441C3.72583 2.71041 3.78378 2.64982 3.84416 2.58996C3.86736 2.56483 3.89057 2.53969 3.91447 2.51379C4.02343 2.41651 4.11663 2.42674 4.25041 2.46496Z" fill="#163C7A"/>
<path d="M12.1348 2.16406C12.25 2.18945 12.25 2.18945 12.3281 2.23633C12.3791 2.32123 12.4056 2.39037 12.402 2.49048C12.3397 2.66113 12.131 2.85831 11.9688 2.93945C11.8575 2.95154 11.8018 2.95389 11.709 2.88867C11.6438 2.79697 11.6273 2.73938 11.625 2.62695C11.7237 2.43582 11.901 2.17457 12.1348 2.16406Z" fill="#163C7A"/>
<path d="M10.125 2.22146C10.2106 2.29067 10.2106 2.29067 10.291 2.37576C10.318 2.40375 10.3449 2.43175 10.3727 2.4606C10.454 2.55261 10.4674 2.57818 10.4766 2.70193C10.4688 2.81521 10.4688 2.81521 10.4355 2.88943C10.3395 2.96996 10.2813 2.97761 10.1562 2.97146C10.0595 2.91113 9.98465 2.8349 9.90625 2.75271C9.88691 2.73434 9.86758 2.71597 9.84766 2.69705C9.75094 2.59854 9.71917 2.55932 9.7168 2.41677C9.76219 2.27793 9.76219 2.27793 9.84375 2.22146C9.95713 2.18367 10.0102 2.18965 10.125 2.22146Z" fill="#163C7A"/>
<path d="M6.00195 0.515625C6.125 0.535156 6.125 0.535156 6.20312 0.601562C6.26075 0.712015 6.27646 0.756213 6.25 0.878906C6.18616 0.971837 6.11147 1.04998 6.03125 1.12891C6.01485 1.14562 5.99846 1.16234 5.98157 1.17957C5.90595 1.25037 5.84988 1.2839 5.74805 1.30469C5.62211 1.27789 5.57596 1.23168 5.5 1.12891C5.47656 1.04102 5.47656 1.04102 5.5 0.941406C5.56482 0.849687 5.6404 0.771571 5.71875 0.691406C5.74389 0.660469 5.76902 0.629531 5.79492 0.597656C5.87697 0.533617 5.90248 0.522599 6.00195 0.515625Z" fill="#163C7A"/>
<path d="M5.875 2.4354C5.96945 2.49806 6.04629 2.57297 6.125 2.65415C6.14204 2.67018 6.15908 2.68621 6.17664 2.70273C6.26206 2.79029 6.28125 2.8333 6.28125 2.95688C6.23618 3.10619 6.23618 3.10619 6.15625 3.15415C6.05664 3.1893 6.05664 3.1893 5.9375 3.1854C5.8422 3.12391 5.76683 3.04714 5.6875 2.96665C5.65656 2.94151 5.62562 2.91637 5.59375 2.89047C5.5292 2.80777 5.5194 2.7836 5.51367 2.68344C5.53125 2.5604 5.53125 2.5604 5.58008 2.48227C5.69082 2.41412 5.74659 2.41185 5.875 2.4354Z" fill="#163C7A"/>
<path d="M3.96873 0.559504C4.04956 0.605866 4.10853 0.665572 4.17185 0.733332C4.18861 0.749385 4.20537 0.765438 4.22263 0.781977C4.31336 0.875137 4.34182 0.91847 4.35764 1.05181C4.34373 1.15325 4.34373 1.15325 4.29294 1.22747C4.19976 1.29123 4.14452 1.3095 4.03123 1.3095C3.86693 1.22561 3.67816 1.07212 3.59373 0.903254C3.58273 0.784542 3.57726 0.711267 3.6406 0.608332C3.74834 0.540995 3.84644 0.536298 3.96873 0.559504Z" fill="#163C7A"/>
<path d="M4.90656 0.078125C5.02769 0.100836 5.0729 0.129525 5.15656 0.220703C5.17918 0.320087 5.17697 0.416086 5.17414 0.517578C5.17448 0.544286 5.17483 0.570994 5.17518 0.598511C5.17291 0.792443 5.17291 0.792443 5.09772 0.893677C5.01882 0.94827 4.97157 0.968355 4.87531 0.970703C4.76636 0.92003 4.72397 0.884311 4.65656 0.783203C4.64797 0.69441 4.64357 0.610313 4.64289 0.521484C4.64186 0.497878 4.64084 0.474272 4.63978 0.449951C4.6385 0.317097 4.64518 0.26657 4.72968 0.158081C4.81281 0.0957031 4.81281 0.0957031 4.90656 0.078125Z" fill="#163C7A"/>
<path d="M9.71484 3.2689C9.74034 3.268 9.76584 3.26709 9.79211 3.26616C9.97878 3.26418 9.97878 3.26418 10.0793 3.33287C10.1301 3.41164 10.1419 3.45324 10.1406 3.54625C10.1409 3.57014 10.1413 3.59402 10.1416 3.61864C10.125 3.68492 10.125 3.68492 10.0791 3.73973C9.96023 3.79825 9.84944 3.79227 9.71875 3.79039C9.69353 3.79075 9.66832 3.79111 9.64233 3.79149C9.53276 3.79094 9.45736 3.78908 9.35925 3.73765C9.2837 3.65244 9.28317 3.57757 9.28125 3.46617C9.37819 3.25384 9.50059 3.27142 9.71484 3.2689Z" fill="#163C7A"/>
<path d="M12.418 3.24427C12.442 3.24363 12.466 3.24298 12.4907 3.24232C12.598 3.24158 12.6689 3.2423 12.765 3.29286C12.8414 3.37804 12.8418 3.45268 12.8438 3.56458C12.8017 3.65669 12.7786 3.70655 12.6875 3.75208C12.5951 3.75929 12.5046 3.76365 12.4121 3.76576C12.3869 3.76719 12.3616 3.76862 12.3356 3.77009C12.1538 3.77351 12.1538 3.77351 12.0722 3.71288C11.9976 3.62817 11.9688 3.57881 11.9688 3.46497C12.0488 3.23977 12.2034 3.2457 12.418 3.24427Z" fill="#163C7A"/>
<path d="M3.58959 1.61313C3.61171 1.61196 3.63382 1.61079 3.65661 1.60959C3.78117 1.6075 3.83688 1.61973 3.93639 1.69674C3.99975 1.7811 3.99975 1.7811 4.01733 1.89242C3.99975 1.99985 3.99975 1.99985 3.9547 2.06808C3.83384 2.15389 3.72251 2.14309 3.57787 2.14047C3.53781 2.1412 3.53781 2.1412 3.49694 2.14194C3.37374 2.14117 3.30324 2.14056 3.2008 2.0682C3.13533 1.9683 3.1414 1.89789 3.156 1.7811C3.25415 1.60348 3.40475 1.61679 3.58959 1.61313Z" fill="#163C7A"/>
<path d="M6.27951 1.58714C6.30189 1.58675 6.32427 1.58637 6.34732 1.58598C6.46483 1.58565 6.55882 1.58575 6.65647 1.6555C6.70536 1.75329 6.7095 1.86208 6.68772 1.968C6.64316 2.03745 6.64316 2.03745 6.56272 2.093C6.46343 2.11215 6.3667 2.11187 6.26584 2.11057C6.23913 2.11132 6.21243 2.11206 6.18491 2.11283C5.99019 2.11238 5.99019 2.11238 5.88877 2.01975C5.83437 1.91896 5.82714 1.86225 5.84397 1.74925C5.94559 1.57019 6.09221 1.5873 6.27951 1.58714Z" fill="#163C7A"/>
<path d="M11.1558 1.7517C11.2553 1.80671 11.2755 1.82979 11.312 1.9392C11.3166 2.01593 11.3189 2.09281 11.3198 2.16967C11.3206 2.21052 11.3214 2.25136 11.3223 2.29345C11.3116 2.41266 11.2906 2.47038 11.2183 2.5642C11.1216 2.61251 11.0434 2.60463 10.937 2.59545C10.8684 2.5509 10.8684 2.5509 10.812 2.47045C10.7935 2.37116 10.7946 2.2743 10.7964 2.17358C10.7959 2.14687 10.7954 2.12016 10.7949 2.09264C10.7957 1.96944 10.7963 1.89895 10.8687 1.7965C10.9686 1.73103 11.039 1.7371 11.1558 1.7517Z" fill="#163C7A"/>
<path d="M8.09375 7.78493C8.16602 7.81813 8.16602 7.81813 8.21875 7.87868C8.25352 8.00386 8.26364 8.06891 8.20703 8.18728C8.15625 8.25368 8.15625 8.25368 8.125 8.28493C7.90132 8.29936 7.90132 8.29936 7.81445 8.25173C7.76284 8.15761 7.75368 8.07924 7.75 7.97243C7.83059 7.7959 7.90375 7.76973 8.09375 7.78493Z" fill="#163C7A"/>
<path d="M11.1564 7.80943C11.217 7.84263 11.217 7.84263 11.2502 7.90318C11.2738 8.11544 11.2738 8.11544 11.2013 8.2313C11.0955 8.29643 11.0285 8.29562 10.9064 8.27818C10.8302 8.2313 10.8302 8.2313 10.7814 8.15318C10.7623 8.0654 10.761 7.99079 10.7814 7.90318C10.895 7.76207 10.9875 7.76251 11.1564 7.80943Z" fill="#163C7A"/>
<path d="M5.12517 7.80943C5.18571 7.84263 5.18571 7.84263 5.21892 7.90318C5.2425 8.11544 5.2425 8.11544 5.17009 8.2313C5.06426 8.29643 4.99723 8.29562 4.87517 8.27818C4.79899 8.2313 4.79899 8.2313 4.75017 8.15318C4.7311 8.0654 4.72974 7.99079 4.75017 7.90318C4.86374 7.76207 4.95625 7.76251 5.12517 7.80943Z" fill="#163C7A"/>
<path d="M12.1876 12.2215C12.2563 12.2712 12.2783 12.2987 12.2938 12.3826C12.2935 12.4068 12.2933 12.431 12.293 12.4559C12.2933 12.48 12.2935 12.5042 12.2938 12.5291C12.2785 12.612 12.2532 12.6389 12.1876 12.6902C12.0933 12.7225 12.0437 12.7249 11.9473 12.6981C11.8751 12.659 11.8751 12.659 11.8126 12.5652C11.7995 12.4453 11.7955 12.3742 11.8594 12.2703C11.9766 12.1971 12.0504 12.2063 12.1876 12.2215Z" fill="#163C7A"/>
<path d="M8.12537 12.2173C8.20544 12.2818 8.20544 12.2818 8.25037 12.3736C8.24847 12.4837 8.2417 12.5584 8.18005 12.6509C8.1076 12.6975 8.05521 12.7112 7.96912 12.7173C7.87832 12.6941 7.82937 12.6751 7.7699 12.6021C7.73638 12.4781 7.75311 12.363 7.81482 12.2505C7.91534 12.1954 8.0158 12.1942 8.12537 12.2173Z" fill="#163C7A"/>
<path d="M4.00232 12.2049C4.06299 12.2156 4.06299 12.2156 4.14111 12.2645C4.20575 12.3695 4.20315 12.4381 4.18799 12.5594C4.15283 12.6336 4.15283 12.6336 4.09424 12.6844C3.97889 12.722 3.92874 12.7264 3.81885 12.6727C3.75049 12.6219 3.75049 12.6219 3.71924 12.5906C3.71289 12.5294 3.71289 12.5294 3.71143 12.4539C3.71062 12.4292 3.70981 12.4044 3.70898 12.379C3.71924 12.3094 3.71924 12.3094 3.75891 12.2543C3.83597 12.1992 3.90982 12.2008 4.00232 12.2049Z" fill="#163C7A"/>
</g>
<defs>
<clipPath id="clip0_1641_5151">
<rect width="16" height="16" fill="white"/>
</clipPath>
</defs>
</svg>
