<svg width="13" height="16" viewBox="0 0 13 16" fill="none" xmlns="http://www.w3.org/2000/svg">
<path d="M2.03964 0.00503249C2.07741 0.00485334 2.11518 0.00467419 2.1541 0.00448961C2.27975 0.00401641 2.4054 0.00425047 2.53105 0.00448785C2.62152 0.00435261 2.71198 0.00406965 2.80244 0.00379602C3.02211 0.00322585 3.24177 0.00319598 3.46144 0.00337065C3.64011 0.00350544 3.81878 0.00345667 3.99744 0.00327923C4.03568 0.00324189 4.03568 0.00324189 4.07469 0.00320379C4.12648 0.00315284 4.17828 0.00310167 4.23008 0.00305027C4.71511 0.00259428 5.20015 0.00277419 5.68518 0.00315623C6.12821 0.00348655 6.57123 0.00305619 7.01426 0.00226026C7.46997 0.00144776 7.92569 0.00112957 8.3814 0.00135056C8.63693 0.00146647 8.89245 0.00139414 9.14797 0.000809966C9.36549 0.000318808 9.58301 0.000300959 9.80053 0.000878855C9.91135 0.00116086 10.0221 0.00116322 10.133 0.000724121C10.9806 -0.0023771 10.9806 -0.00237711 11.3276 0.150989C11.3721 0.168817 11.3721 0.168817 11.4175 0.187006C11.8913 0.383703 12.2177 0.833178 12.4239 1.28421C12.5114 1.53046 12.5349 1.76518 12.534 2.02524C12.5342 2.05864 12.5343 2.09203 12.5345 2.12644C12.5349 2.23767 12.5348 2.3489 12.5348 2.46014C12.535 2.54015 12.5352 2.62016 12.5355 2.70018C12.536 2.89452 12.5362 3.08886 12.5362 3.2832C12.5363 3.44116 12.5364 3.59912 12.5366 3.75707C12.5372 4.20529 12.5375 4.65351 12.5375 5.10172C12.5375 5.12585 12.5374 5.14997 12.5374 5.17482C12.5374 5.19897 12.5374 5.22312 12.5374 5.24801C12.5374 5.63989 12.538 6.03177 12.539 6.42365C12.5399 6.8264 12.5404 7.22915 12.5403 7.6319C12.5403 7.85787 12.5405 8.08384 12.5412 8.30981C12.5419 8.52216 12.5419 8.73449 12.5414 8.94684C12.5413 9.0248 12.5415 9.10277 12.5419 9.18073C12.5424 9.28707 12.5421 9.39337 12.5416 9.49971C12.5419 9.53063 12.5423 9.56156 12.5426 9.59342C12.5406 9.77822 12.5155 9.88419 12.3921 10.0307C12.2535 10.1589 12.168 10.1898 11.9846 10.2074C11.8298 10.1945 11.7203 10.1536 11.5937 10.064C11.4693 9.91082 11.4232 9.78587 11.4232 9.5917C11.4231 9.56394 11.4231 9.53619 11.423 9.50759C11.4231 9.47727 11.4231 9.44695 11.4232 9.41572C11.4232 9.38337 11.4231 9.35103 11.4231 9.3177C11.423 9.20902 11.4231 9.10034 11.4232 8.99166C11.4231 8.91385 11.4231 8.83605 11.423 8.75824C11.4228 8.5905 11.4228 8.42277 11.4228 8.25503C11.4227 7.98972 11.4223 7.7244 11.4218 7.45909C11.4217 7.41387 11.4216 7.36865 11.4215 7.32343C11.4214 7.2549 11.4213 7.18637 11.4211 7.11784C11.4206 6.85949 11.4202 6.60114 11.4198 6.34279C11.4197 6.30737 11.4197 6.30737 11.4197 6.27123C11.4191 5.8889 11.419 5.50656 11.4191 5.12422C11.4191 4.7314 11.4185 4.33858 11.4174 3.94576C11.4167 3.72532 11.4164 3.50489 11.4168 3.28445C11.4172 3.07699 11.4168 2.86955 11.4159 2.66209C11.4156 2.58606 11.4157 2.51003 11.4161 2.434C11.4165 2.32995 11.416 2.22595 11.4151 2.12191C11.4155 2.09203 11.4159 2.06216 11.4163 2.03138C11.4126 1.78555 11.3372 1.56881 11.1698 1.38451C10.8859 1.1204 10.5475 1.11064 10.1802 1.11123C10.1454 1.11115 10.1107 1.11107 10.0749 1.111C9.95871 1.11079 9.84252 1.11081 9.72634 1.11084C9.64294 1.11074 9.55955 1.11063 9.47616 1.1105C9.27327 1.11024 9.07038 1.11013 8.86749 1.11012C8.70251 1.1101 8.53753 1.11003 8.37254 1.10993C7.90436 1.10963 7.43617 1.10948 6.96799 1.1095C6.94277 1.10951 6.91755 1.10951 6.89157 1.10951C6.86632 1.10951 6.84107 1.10951 6.81506 1.10951C6.40595 1.10953 5.99683 1.10921 5.58772 1.10874C5.16723 1.10826 4.74674 1.10803 4.32625 1.10806C4.09035 1.10807 3.85444 1.10798 3.61854 1.10762C3.39664 1.10729 3.17474 1.1073 2.95285 1.10754C2.87151 1.10757 2.79016 1.1075 2.70882 1.10729C2.59758 1.10704 2.48635 1.10719 2.37511 1.10745C2.34311 1.10728 2.3111 1.10711 2.27812 1.10693C1.93233 1.10868 1.62454 1.15063 1.36472 1.39557C1.13436 1.65197 1.13399 1.89843 1.13538 2.22727C1.13521 2.27293 1.13501 2.31858 1.13476 2.36424C1.13422 2.48937 1.13429 2.61449 1.13447 2.73963C1.13456 2.87471 1.13408 3.00979 1.13367 3.14487C1.13297 3.4094 1.13282 3.67392 1.13288 3.93844C1.13292 4.15349 1.1328 4.36854 1.13255 4.58359C1.13248 4.64556 1.13241 4.70753 1.13234 4.7695C1.13229 4.81576 1.13229 4.81576 1.13224 4.86296C1.13161 5.44621 1.13164 6.02945 1.13187 6.6127C1.13205 7.14604 1.13136 7.67937 1.13026 8.21271C1.12914 8.76056 1.12863 9.3084 1.12879 9.85624C1.12886 10.1637 1.12869 10.4712 1.12786 10.7787C1.12716 11.0405 1.12704 11.3023 1.12767 11.5641C1.12797 11.6976 1.12801 11.8311 1.12733 11.9646C1.1267 12.087 1.12685 12.2093 1.12761 12.3317C1.12781 12.3966 1.1272 12.4615 1.12656 12.5264C1.12939 12.8086 1.17756 13.0408 1.37277 13.2542C1.62884 13.4946 1.92737 13.5286 2.26475 13.5277C2.29263 13.5278 2.32051 13.5278 2.34924 13.5279C2.40952 13.528 2.46979 13.5281 2.53007 13.5281C2.65842 13.5282 2.78676 13.5289 2.9151 13.5296C3.15377 13.5309 3.39243 13.5319 3.6311 13.5318C3.79742 13.5318 3.96371 13.5326 4.13002 13.5339C4.19324 13.5343 4.25647 13.5343 4.31969 13.534C4.40823 13.5337 4.49671 13.5344 4.58524 13.5354C4.61115 13.535 4.63706 13.5347 4.66376 13.5343C4.85207 13.5379 4.96979 13.5938 5.10703 13.7231C5.22571 13.8877 5.2345 14.0591 5.20682 14.2553C5.1475 14.432 5.03802 14.5361 4.87417 14.6213C4.72031 14.655 4.56933 14.6595 4.4125 14.6594C4.38699 14.6595 4.36148 14.6596 4.3352 14.6597C4.25121 14.66 4.16722 14.6601 4.08322 14.6601C4.02429 14.6602 3.96536 14.6603 3.90643 14.6604C3.78287 14.6606 3.6593 14.6607 3.53574 14.6607C3.37872 14.6607 3.22172 14.6611 3.0647 14.6617C2.94286 14.6621 2.82102 14.6621 2.69918 14.6621C2.64138 14.6622 2.58358 14.6623 2.52578 14.6626C1.75574 14.6657 1.12575 14.5764 0.53933 14.0266C0.136451 13.6056 0.00723823 13.0965 0.00858983 12.5315C0.00846541 12.4848 0.00831234 12.4381 0.00813313 12.3914C0.00772736 12.2635 0.00773478 12.1356 0.00781336 12.0077C0.00782696 11.8696 0.00745947 11.7315 0.00714424 11.5934C0.00659224 11.3229 0.00640882 11.0525 0.00637169 10.782C0.00634005 10.5621 0.00620315 10.3422 0.0059924 10.1223C0.00540665 9.49832 0.00509965 8.87437 0.00514956 8.25042C0.00515222 8.2168 0.00515482 8.18318 0.00515755 8.14855C0.00516027 8.11489 0.005163 8.08123 0.0051658 8.04655C0.00519284 7.50123 0.00455639 6.95592 0.00361818 6.4106C0.00266172 5.85024 0.00220309 5.28988 0.00226052 4.72952C0.00228258 4.41509 0.00210105 4.10067 0.0013838 3.78625C0.000776931 3.5185 0.000634276 3.25076 0.00108509 2.98302C0.00130177 2.84654 0.00130806 2.71006 0.00072889 2.57358C0.000203094 2.44838 0.000303455 2.3232 0.000880911 2.198C0.00103022 2.13179 0.000530621 2.06559 0 1.99938C0.0041438 1.45479 0.197195 0.987664 0.571296 0.592919C0.988946 0.187063 1.4593 0.00168125 2.03964 0.00503249Z" fill="#163C7A"/>
<path d="M9.20519 10.067C9.33147 10.1511 9.43677 10.2502 9.4895 10.3969C9.55418 10.4969 9.63593 10.5067 9.74783 10.541C10.1183 10.6632 10.3853 10.8551 10.6626 11.1273C10.6835 11.1473 10.7044 11.1674 10.7259 11.1881C11.0012 11.4753 11.187 11.8702 11.2614 12.2583C11.2671 12.2862 11.2729 12.3142 11.2789 12.3429C11.2991 12.4901 11.2979 12.6337 11.297 12.7821C11.2973 12.8456 11.2976 12.909 11.298 12.9725C11.2986 13.0719 11.2988 13.1712 11.298 13.2705C11.2973 13.3669 11.298 13.4632 11.2991 13.5596C11.2982 13.6038 11.2982 13.6038 11.2973 13.6489C11.3005 13.8152 11.3224 13.9005 11.4425 14.0196C11.4735 14.0459 11.4735 14.0459 11.5052 14.0729C11.5788 14.1368 11.6159 14.2058 11.6564 14.2937C11.6694 14.3209 11.6823 14.3481 11.6956 14.3762C11.7563 14.5259 11.7666 14.6555 11.7687 14.8176C11.77 14.8777 11.77 14.8777 11.7713 14.9391C11.7573 15.0843 11.7113 15.1666 11.6107 15.2703C11.4625 15.3891 11.3691 15.4227 11.1819 15.4222C11.1453 15.4222 11.1087 15.4222 11.0709 15.4222C11.0314 15.4221 10.9919 15.4219 10.9512 15.4217C10.8905 15.4216 10.8905 15.4216 10.8286 15.4216C10.6991 15.4214 10.5696 15.421 10.4402 15.4205C10.3525 15.4204 10.2648 15.4202 10.1771 15.4201C9.96193 15.4197 9.74676 15.4192 9.5316 15.4185C9.52727 15.4547 9.52294 15.4909 9.51848 15.5283C9.48896 15.7086 9.41282 15.8057 9.28212 15.9299C9.11018 16.0097 8.9529 16.0088 8.76651 15.984C8.58506 15.903 8.51275 15.794 8.43386 15.618C8.43177 15.5516 8.43142 15.4849 8.43386 15.4185C8.41096 15.4187 8.38807 15.4189 8.36448 15.4191C8.12597 15.4213 7.88745 15.4228 7.64893 15.4239C7.55994 15.4244 7.47096 15.4251 7.38197 15.426C7.25398 15.4272 7.126 15.4278 6.99801 15.4282C6.93843 15.429 6.93843 15.429 6.87765 15.4298C6.6565 15.4298 6.48789 15.4249 6.31672 15.2688C6.15942 15.0667 6.1499 14.9026 6.17184 14.6534C6.23786 14.3404 6.38006 14.1125 6.60429 13.8883C6.61168 13.7956 6.61511 13.706 6.61572 13.6132C6.61621 13.5855 6.61669 13.5578 6.61719 13.5293C6.61874 13.4404 6.61988 13.3514 6.62092 13.2625C6.631 12.4195 6.72003 11.7154 7.32117 11.0724C7.5999 10.8048 7.92034 10.6258 8.28209 10.4973C8.41236 10.4473 8.41236 10.4473 8.49207 10.331C8.50579 10.2974 8.51952 10.2638 8.53365 10.2291C8.72476 10.0283 8.94505 9.97514 9.20519 10.067ZM8.201 11.7593C7.91357 12.0202 7.75373 12.3283 7.72956 12.7163C7.72765 12.8191 7.7278 12.9217 7.7288 13.0245C7.72886 13.0576 7.72893 13.0906 7.729 13.1247C7.72935 13.2469 7.73027 13.369 7.73114 13.4912C7.73251 13.7649 7.73388 14.0387 7.73529 14.3207C8.54763 14.3207 9.35996 14.3207 10.1969 14.3207C10.199 14.0367 10.201 13.7526 10.2031 13.46C10.204 13.371 10.205 13.282 10.2059 13.1902C10.2062 13.1188 10.2064 13.0473 10.2066 12.9758C10.2072 12.9395 10.2077 12.9031 10.2082 12.8656C10.2083 12.4696 10.1116 12.1499 9.83476 11.8599C9.36258 11.4239 8.72673 11.3857 8.201 11.7593Z" fill="#163C7A"/>
<path d="M5.76784 7.86359C5.80766 7.86335 5.84749 7.86312 5.88852 7.86287C5.9321 7.86278 5.97569 7.86269 6.02059 7.8626C6.06704 7.86239 6.1135 7.86217 6.15995 7.86194C6.31238 7.86124 6.46481 7.86089 6.61725 7.86056C6.6698 7.86043 6.72235 7.86029 6.7749 7.86015C7.02182 7.85952 7.26874 7.85904 7.51566 7.85877C7.80035 7.85844 8.08503 7.85757 8.36972 7.85622C8.59 7.85522 8.81027 7.85473 9.03054 7.85462C9.162 7.85454 9.29345 7.85424 9.42491 7.8534C9.54865 7.85263 9.67238 7.85249 9.79613 7.85283C9.86289 7.85285 9.92966 7.85222 9.99642 7.85156C10.2344 7.85293 10.3949 7.8706 10.5961 8.00155C10.7527 8.17028 10.7744 8.28095 10.7715 8.50624C10.7574 8.65196 10.721 8.71795 10.6293 8.83317C10.4126 9.00221 10.1907 8.98535 9.92537 8.98398C9.87759 8.98421 9.82981 8.9845 9.78203 8.98485C9.65275 8.98559 9.52348 8.9855 9.39419 8.9852C9.28607 8.98503 9.17794 8.98527 9.06982 8.98552C8.81464 8.98608 8.55948 8.98596 8.3043 8.98541C8.04147 8.98484 7.77866 8.98537 7.51584 8.98644C7.28977 8.98733 7.06371 8.98757 6.83764 8.98729C6.7028 8.98713 6.56797 8.9872 6.43313 8.98788C6.30629 8.9885 6.17948 8.98829 6.05265 8.98748C6.00625 8.98731 5.95985 8.98743 5.91346 8.98785C5.65065 8.99005 5.44104 8.98457 5.24039 8.79991C5.11273 8.63235 5.11341 8.43706 5.14059 8.2344C5.21304 8.08682 5.30407 7.99349 5.43998 7.90175C5.54958 7.86525 5.65285 7.86406 5.76784 7.86359Z" fill="#163C7A"/>
<path d="M5.79864 2.57843C5.8379 2.57824 5.87717 2.57805 5.91762 2.57785C5.96058 2.57781 6.00355 2.57778 6.04781 2.57774C6.09361 2.57758 6.1394 2.57742 6.1852 2.57724C6.30954 2.5768 6.43388 2.57659 6.55821 2.57644C6.63596 2.57634 6.71371 2.57621 6.79145 2.57606C7.03489 2.5756 7.27833 2.57528 7.52176 2.57515C7.80243 2.575 8.08308 2.57442 8.36374 2.57346C8.58091 2.57274 8.79807 2.5724 9.01524 2.57236C9.14484 2.57232 9.27443 2.57213 9.40402 2.57153C9.52602 2.57098 9.648 2.57091 9.77 2.5712C9.83581 2.57124 9.90163 2.57079 9.96744 2.57031C10.4452 2.57255 10.4452 2.57255 10.6143 2.73119C10.7576 2.89723 10.7743 3.00743 10.7715 3.22085C10.7574 3.36658 10.7211 3.43256 10.6294 3.54778C10.4125 3.71705 10.1904 3.69974 9.9249 3.69806C9.87707 3.69824 9.82924 3.69848 9.7814 3.69877C9.65198 3.69937 9.52258 3.69914 9.39316 3.69872C9.25746 3.69838 9.12176 3.69869 8.98606 3.6989C8.75822 3.69914 8.53038 3.69882 8.30253 3.69819C8.03944 3.69747 7.77637 3.6977 7.51328 3.69843C7.28704 3.69904 7.06081 3.69912 6.83457 3.69877C6.6996 3.69857 6.56464 3.69854 6.42967 3.69898C6.30276 3.69936 6.17586 3.69909 6.04895 3.69833C6.00248 3.69815 5.95602 3.6982 5.90956 3.6985C5.47328 3.701 5.47328 3.701 5.27372 3.54778C5.15109 3.42201 5.13056 3.31888 5.12402 3.1486C5.13034 2.97838 5.15302 2.87647 5.27372 2.74942C5.45265 2.6115 5.57688 2.57907 5.79864 2.57843Z" fill="#163C7A"/>
<path d="M5.97828 5.22139C6.02612 5.22121 6.07395 5.22097 6.12178 5.22068C6.2512 5.22008 6.38061 5.22031 6.51003 5.22073C6.64573 5.22107 6.78142 5.22076 6.91712 5.22055C7.14497 5.22031 7.37281 5.22062 7.60065 5.22126C7.86374 5.22198 8.12682 5.22175 8.38991 5.22101C8.61615 5.22041 8.84238 5.22033 9.06862 5.22067C9.20358 5.22088 9.33855 5.22091 9.47351 5.22047C9.60043 5.22008 9.72732 5.22035 9.85424 5.22112C9.9007 5.2213 9.94717 5.22125 9.99363 5.22095C10.4331 5.21842 10.4331 5.21842 10.6295 5.37166C10.7616 5.53764 10.7838 5.67362 10.7754 5.88441C10.7507 6.0497 10.665 6.13714 10.5463 6.24695C10.4112 6.33815 10.296 6.34056 10.1351 6.34102C10.0952 6.34121 10.0553 6.3414 10.0142 6.3416C9.9706 6.34163 9.92696 6.34167 9.88201 6.34171C9.8355 6.34186 9.78899 6.34203 9.74248 6.34221C9.61623 6.34265 9.48997 6.34286 9.36371 6.34301C9.28478 6.34311 9.20585 6.34324 9.12692 6.34339C8.87985 6.34385 8.63277 6.34417 8.38569 6.3443C8.10072 6.34445 7.81575 6.34503 7.53078 6.34599C7.31034 6.34671 7.08989 6.34705 6.86945 6.34709C6.73787 6.34713 6.60629 6.34732 6.4747 6.34792C6.35088 6.34847 6.22706 6.34854 6.10324 6.34825C6.03634 6.34821 5.96945 6.34866 5.90256 6.34914C5.46581 6.34712 5.46581 6.34712 5.28238 6.18549C5.13394 5.98535 5.11679 5.85233 5.14075 5.60452C5.18844 5.44707 5.28399 5.34414 5.42874 5.26579C5.60429 5.20454 5.79447 5.22022 5.97828 5.22139Z" fill="#163C7A"/>
<path d="M3.45195 5.10822C3.64475 5.21449 3.77317 5.36501 3.84281 5.57393C3.87251 5.85264 3.84358 6.0758 3.67649 6.30576C3.53935 6.44723 3.37245 6.51876 3.17751 6.53862C2.94481 6.53822 2.77222 6.48362 2.59122 6.33279C2.4138 6.12269 2.35593 5.94779 2.36642 5.67048C2.39243 5.47327 2.46655 5.35347 2.60577 5.21426C2.88136 5.02513 3.14192 4.97023 3.45195 5.10822Z" fill="#163C7A"/>
<path d="M3.4274 2.44492C3.6256 2.56277 3.76932 2.72682 3.84257 2.94688C3.87154 3.19116 3.86224 3.4121 3.70951 3.61218C3.56742 3.76302 3.42644 3.86453 3.21612 3.88948C2.96093 3.89282 2.77666 3.86924 2.58681 3.69041C2.40498 3.49022 2.36304 3.3151 2.36864 3.04681C2.38999 2.83899 2.47453 2.70614 2.62839 2.56849C2.85587 2.38341 3.14737 2.34376 3.4274 2.44492Z" fill="#163C7A"/>
<path d="M3.61037 7.85543C3.78623 8.03129 3.84721 8.18159 3.85778 8.42925C3.85127 8.64626 3.80414 8.7951 3.6565 8.95525C3.46827 9.12887 3.28499 9.17991 3.03122 9.17342C2.79611 9.14541 2.63328 9.04093 2.48573 8.85975C2.35884 8.65964 2.35613 8.46246 2.37956 8.23174C2.43824 8.01188 2.59062 7.85428 2.77874 7.73277C3.06297 7.60627 3.37498 7.65863 3.61037 7.85543Z" fill="#163C7A"/>
</svg>
