<svg width="15" height="16" viewBox="0 0 15 16" fill="none" xmlns="http://www.w3.org/2000/svg">
<path d="M12.1203 3.54893C12.3123 3.72286 12.4906 3.90217 12.6544 4.10312C12.688 4.14283 12.7215 4.18254 12.7551 4.22225C13.7051 5.36004 14.3633 6.8833 14.3783 8.37902C14.3786 8.40929 14.379 8.43955 14.3794 8.47073C14.3858 9.14024 14.3798 9.78691 14.2203 10.4412C14.2086 10.4908 14.2086 10.4908 14.1966 10.5413C13.7515 12.3792 12.5598 13.9742 10.9553 14.9647C9.25185 15.9761 7.26143 16.2469 5.34511 15.765C4.17299 15.45 3.13167 14.8545 2.25238 14.0204C2.23414 14.0034 2.21589 13.9864 2.1971 13.9688C1.71305 13.5146 1.31147 12.9951 0.98476 12.4172C0.971519 12.3942 0.958278 12.3712 0.944637 12.3475C0.576929 11.7038 0.323186 11.0156 0.164532 10.2921C0.158428 10.266 0.152325 10.2398 0.146036 10.2128C-0.195011 8.69716 0.0820441 7.00925 0.761061 5.63172C0.77423 5.60473 0.787398 5.57773 0.800966 5.54991C1.21289 4.71384 1.81976 3.90488 2.55065 3.32017C2.584 3.29288 2.61736 3.26558 2.65172 3.23745C3.64188 2.44931 4.77162 1.93431 6.01797 1.717C6.06291 1.70859 6.10785 1.70018 6.15414 1.69152C8.33144 1.34873 10.4992 2.10006 12.1203 3.54893ZM3.37088 4.8115C3.33791 4.84206 3.30494 4.87263 3.27097 4.90412C2.23789 5.8933 1.68502 7.31808 1.64275 8.73486C1.62775 10.2265 2.22229 11.6471 3.24935 12.7189C4.24264 13.7265 5.6338 14.3493 7.05238 14.365C7.51504 14.3661 7.95341 14.3516 8.40409 14.2441C8.43163 14.2377 8.45917 14.2313 8.48754 14.2247C9.93125 13.8807 11.1931 12.9569 11.9751 11.695C12.7273 10.4228 12.9751 8.88449 12.6063 7.44811C12.3431 6.49849 11.8793 5.67785 11.2003 4.96063C11.1698 4.92766 11.1392 4.89469 11.1077 4.86072C10.0933 3.80131 8.65842 3.28387 7.21103 3.2424C5.74699 3.28434 4.43525 3.80384 3.37088 4.8115Z" fill="#163C7A"/>
<path d="M7.76144 4.99137C7.89859 5.12852 8 5.29129 8.03174 5.48537C8.02906 5.57602 8.02372 5.6666 8.01691 5.75703C8.01302 5.81351 8.00922 5.87 8.00548 5.92649C8.00251 5.97142 8.00251 5.97142 7.99948 6.01726C7.83992 7.59741 7.83992 7.59741 8.38287 9.01284C8.66381 9.3242 8.99487 9.58332 9.34362 9.81453C9.50596 9.92685 9.57325 10.0473 9.62064 10.2387C9.65369 10.5442 9.59559 10.7372 9.40422 10.9776C9.22909 11.1645 9.05125 11.2288 8.79837 11.2433C8.39407 11.22 8.15138 10.9635 7.88057 10.6878C7.84206 10.6492 7.80352 10.6107 7.76495 10.5722C7.68463 10.4918 7.60464 10.4111 7.52489 10.3302C7.42298 10.2268 7.32042 10.1241 7.21763 10.0216C7.13816 9.94222 7.05896 9.86258 6.97986 9.78284C6.94215 9.74487 6.90436 9.70696 6.86651 9.66914C6.81361 9.61617 6.76112 9.5628 6.70864 9.50941C6.67878 9.47923 6.64891 9.44904 6.61813 9.41794C6.40896 9.16919 6.38569 8.93519 6.38528 8.62221C6.38509 8.58884 6.38491 8.55548 6.38472 8.52111C6.38417 8.41079 6.38392 8.30046 6.38371 8.19014C6.3835 8.11333 6.38328 8.03652 6.38307 7.9597C6.38267 7.79861 6.38246 7.63752 6.38233 7.47642C6.38212 7.27041 6.38123 7.0644 6.38017 6.85839C6.37947 6.69968 6.37928 6.54097 6.37922 6.38226C6.37911 6.30633 6.37881 6.2304 6.37832 6.15448C6.37768 6.04803 6.37775 5.9416 6.37799 5.83515C6.37765 5.80403 6.37731 5.77292 6.37695 5.74086C6.37895 5.45792 6.44616 5.2068 6.65227 5.00069C7.01892 4.74711 7.39085 4.75554 7.76144 4.99137Z" fill="#163C7A"/>
<path d="M4.52318 0.104518C4.71235 0.226126 4.82869 0.38975 4.89892 0.601723C4.93451 0.874827 4.90527 1.11722 4.74979 1.34738C4.53818 1.54104 4.28984 1.69574 4.05015 1.85202C4.01607 1.87441 3.98199 1.8968 3.94688 1.91987C3.83867 1.99093 3.73033 2.0618 3.62198 2.13266C3.5157 2.20233 3.40946 2.27204 3.30322 2.34176C3.23279 2.38798 3.16233 2.43416 3.09186 2.48032C2.91067 2.59911 2.73003 2.71863 2.55016 2.83942C2.51424 2.86352 2.47833 2.88762 2.44132 2.91245C2.37277 2.95852 2.3043 3.0047 2.23591 3.051C2.19003 3.08184 2.19003 3.08184 2.14322 3.1133C2.1164 3.13142 2.08958 3.14955 2.06195 3.16823C1.86085 3.29071 1.6212 3.26803 1.39431 3.24882C1.15064 3.17697 0.983818 2.96347 0.858371 2.75249C0.797453 2.49054 0.805261 2.21454 0.946918 1.9812C1.15457 1.76578 1.39633 1.59727 1.64656 1.43564C1.68064 1.4133 1.71472 1.39096 1.74983 1.36795C1.85796 1.29714 1.96634 1.22671 2.07473 1.15631C2.18101 1.08692 2.28724 1.01745 2.39346 0.947968C2.46396 0.90189 2.53451 0.855879 2.6051 0.809936C2.78529 0.692527 2.96458 0.57401 3.14261 0.453356C3.17803 0.429425 3.21344 0.405494 3.24993 0.380839C3.31709 0.335347 3.38412 0.289644 3.45097 0.243692C3.80249 0.00589215 4.127 -0.0908 4.52318 0.104518Z" fill="#163C7A"/>
<path d="M10.9573 0.216954C11.0181 0.257969 11.0786 0.299315 11.1389 0.340937C11.1716 0.363183 11.2044 0.38543 11.2382 0.40835C11.3439 0.480203 11.4494 0.55248 11.5548 0.624783C11.6635 0.698895 11.7722 0.77292 11.8809 0.846939C11.9525 0.895674 12.0241 0.944447 12.0956 0.993259C12.2927 1.12761 12.4905 1.26051 12.6903 1.39069C12.7314 1.41754 12.7725 1.4444 12.8149 1.47207C12.887 1.51903 12.9594 1.5657 13.032 1.61201C13.2577 1.75949 13.4453 1.91345 13.5634 2.16038C13.6153 2.41989 13.6174 2.67926 13.4749 2.9107C13.3183 3.0796 13.1522 3.23207 12.9174 3.25877C12.8565 3.2595 12.8565 3.2595 12.7945 3.26023C12.7543 3.26129 12.7141 3.26235 12.6727 3.26343C12.3813 3.22488 12.1339 3.02959 11.8962 2.86701C11.8634 2.84481 11.8306 2.82262 11.7968 2.79975C11.6912 2.72816 11.5857 2.65633 11.4802 2.58447C11.3358 2.48635 11.1912 2.38832 11.0467 2.29029C11.0114 2.26634 10.9761 2.24238 10.9398 2.21771C10.7415 2.08318 10.5425 1.94978 10.3421 1.81842C10.3102 1.79748 10.3102 1.79748 10.2777 1.77612C10.1842 1.71471 10.0905 1.65361 9.99649 1.59301C9.75957 1.43761 9.5869 1.29734 9.52288 1.00927C9.49586 0.742298 9.50803 0.520653 9.67201 0.300887C10.0449 -0.104537 10.5182 -0.0672843 10.9573 0.216954Z" fill="#163C7A"/>
</svg>
