<svg width="16" height="16" viewBox="0 0 16 16" fill="none" xmlns="http://www.w3.org/2000/svg">
<g clip-path="url(#clip0_1641_5145)">
<path d="M8.66634 14.6364C8.44707 14.6581 8.22467 14.6693 7.99967 14.6693C4.31778 14.6693 1.33301 11.6845 1.33301 8.0026C1.33301 4.32071 4.31778 1.33594 7.99967 1.33594C11.6816 1.33594 14.6663 4.32071 14.6663 8.0026C14.6663 8.2276 14.6552 8.45 14.6334 8.66927" stroke="#163C7A" stroke-width="1.5" stroke-linecap="round"/>
<path d="M5 11.3385C5.93498 10.3593 7.34746 9.94127 8.66667 10.1346M9.6634 6.33854C9.6634 7.25902 8.91614 8.00521 7.99435 8.00521C7.07257 8.00521 6.32531 7.25902 6.32531 6.33854C6.32531 5.41807 7.07257 4.67188 7.99435 4.67188C8.91614 4.67188 9.6634 5.41807 9.6634 6.33854Z" stroke="#163C7A" stroke-width="1.5" stroke-linecap="round"/>
<circle cx="12.3333" cy="12.3333" r="2.33333" stroke="#163C7A" stroke-width="1.5"/>
</g>
<defs>
<clipPath id="clip0_1641_5145">
<rect width="16" height="16" fill="white"/>
</clipPath>
</defs>
</svg>
